<svg width="32" height="32" viewBox="0 0 32 32" fill="none" xmlns="http://www.w3.org/2000/svg">
<mask id="mask0" mask-type="alpha" maskUnits="userSpaceOnUse" x="0" y="0" width="32" height="32">
<rect width="32" height="32" rx="4" fill="#F2F3F5"/>
</mask>
<g mask="url(#mask0)">
<g opacity="0.5">
<path d="M38.0499 -5.51736H-6.25659V38.7892H38.0499V-5.51736Z" fill="#D4E8F4"/>
<path d="M38.0499 -5.51736H-6.25659V38.7892H38.0499V-5.51736Z" fill="white"/>
<path d="M38.0499 -5.51736H-6.25659V38.7892H38.0499V-5.51736Z" fill="#E9E5DC"/>
<path d="M7.69482 38.7888H12.7871L21.5685 33.0461C22.7598 32.2673 23.7875 31.2284 24.5588 30.0297C24.5755 30.0037 24.5941 29.9758 24.6108 29.9479C24.6592 29.8717 24.7056 29.7955 24.7521 29.7175C24.8264 29.5911 24.8989 29.4647 24.9677 29.3346C25.0699 29.1432 25.1665 28.9462 25.2576 28.7492C25.3227 28.6043 25.3858 28.4574 25.4453 28.3106C25.8244 27.3591 26.0623 26.3499 26.1404 25.3296C26.369 22.3987 28.3111 19.8861 31.0896 18.9289L38.0515 16.5315V13.5839L30.1808 16.2936C26.3504 17.6131 23.6723 21.0755 23.3582 25.114C23.2857 26.0377 23.0367 26.9335 22.639 27.7549C22.5684 27.9017 22.4903 28.0467 22.4104 28.1898C22.297 28.3887 22.1762 28.582 22.0443 28.7678C21.903 28.9704 21.7506 29.1655 21.5908 29.3532C21.5685 29.3792 21.548 29.4034 21.5257 29.4276C21.0946 29.9163 20.5984 30.3494 20.0445 30.7118L7.69482 38.7888Z" fill="#A9D0FF"/>
<path d="M-0.199951 38.789H2.1845L17.7252 28.675L17.8237 28.61L18.6099 28.0989L19.3886 27.5934L19.9573 27.2235L20.3476 26.9689L23.7468 16.2603L38.0497 10.9227V9.53438L23.4383 14.9872L22.6986 15.2641L22.4886 15.9295L19.2473 26.1326L18.1285 26.8611L17.6416 27.1771L17.0971 27.532L16.5507 27.887L16.2013 28.1138L14.4561 29.2512L13.3652 29.9611L11.4844 31.184L10.3935 31.8939L-0.199951 38.789Z" fill="white"/>
<path d="M16.1305 -5.51758L16.4613 -4.97118L17.1359 -3.85794L20.8343 2.24907L21.403 3.18761H38.0496V1.88667H22.1353L17.6526 -5.51758H16.1305Z" fill="white"/>
<path d="M1.77726 15.1537L0.664429 15.8276L10.4609 32.005L11.5737 31.3311L1.77726 15.1537Z" fill="white"/>
<path d="M17.3665 4.95967L16.2537 5.63356L22.698 16.2754L23.8108 15.6015L17.3665 4.95967Z" fill="white"/>
<path d="M-6.25659 -0.865543V0.663999L3.75698 -5.51736H1.27961L-6.25659 -0.865543Z" fill="white"/>
<path d="M-6.25684 9.05482V10.5844L-1.85592 7.86724L-1.42661 7.60148L-0.91552 7.28553L-0.157253 6.81719L-0.00299835 6.72241L17.136 -3.858L17.7029 -4.20926L17.0208 -5.31506L16.4614 -4.97124L-1.36342 6.03291L-1.46192 6.09424L-2.28337 6.60161L-2.73313 6.87852L-3.21634 7.17774L-6.25684 9.05482Z" fill="white"/>
<path d="M-6.25684 18.9755V20.5032L0.842617 16.1208L1.94842 15.4369L3.8571 14.2605L4.9629 13.5766L6.73591 12.4819L6.87344 12.3964L7.44028 12.047L7.9811 11.7125L8.31749 11.5062L16.6826 6.34144L17.7902 5.65752L21.7916 3.18758L22.1112 2.99058L21.4273 1.88292L20.8345 2.24904L7.46072 10.5063L7.01096 10.7832L6.59652 11.0397L5.74161 11.5675L5.6078 11.6493L-6.25684 18.9755Z" fill="white"/>
<path d="M-6.25684 23.4602V38.789H-3.46166L3.63779 34.154C4.01321 33.9086 4.26411 33.5146 4.32544 33.0705L4.52987 31.5911C4.5912 31.1525 4.62094 30.712 4.62094 30.2716C4.62094 29.1249 4.4165 27.9856 4.01321 26.904C3.53 25.6105 2.78289 24.4508 1.83134 23.4918C0.881645 22.5328 -0.270622 21.7727 -1.55856 21.2764C-2.01017 21.1036 -2.51568 21.1501 -2.92641 21.4047L-6.25684 23.4602Z" fill="#B7D694"/>
<path d="M19.8456 -5.51758C21.2878 -3.61448 24.2075 -0.347244 27.6048 0.238182C31.4017 0.89423 36.1632 0.453767 38.0495 0.232606V-5.51758H19.8456Z" fill="#A9D0FF"/>
<path d="M22.4308 4.97183H35.5741C35.7599 4.97183 35.9104 5.12237 35.9104 5.30822V8.20004C35.9104 8.34314 35.8212 8.46952 35.6874 8.51784L24.3859 12.5564C24.2354 12.6102 24.07 12.5508 23.9863 12.4151L20.3697 6.53668C20.2712 6.37685 20.3232 6.16684 20.4849 6.0702L22.2616 5.01644C22.3118 4.98856 22.3713 4.97183 22.4308 4.97183Z" fill="#5CBA47"/>
<path d="M20.1767 17.3921L18.6639 22.1554C18.4372 22.8728 17.4708 22.9862 17.0823 22.3431L11.5217 13.138C11.1333 12.4968 11.3303 11.6623 11.964 11.2609L14.6979 9.53065C15.3521 9.11621 16.2181 9.3225 16.6159 9.98413L19.9574 15.5392C20.2938 16.0949 20.3737 16.7714 20.1767 17.3921Z" fill="#D3D0C9"/>
<path d="M13.2813 5.26368L18.6914 1.97786C18.8327 1.89237 18.8773 1.71024 18.7918 1.56899L16.8515 -1.62576C16.766 -1.76701 16.5839 -1.81161 16.4426 -1.72612L11.0326 1.5597C10.8913 1.64519 10.8467 1.82732 10.9322 1.96857L12.8725 5.16332C12.958 5.30457 13.1419 5.34917 13.2813 5.26368Z" fill="#D3D0C9"/>
<path d="M6.44946 4.49408L6.45318 4.4978L9.40261 2.70621L9.40447 2.70807C9.53828 2.62629 9.71484 2.66904 9.79661 2.80285L11.7499 6.01805C11.8317 6.15186 11.7889 6.32841 11.6551 6.41019L10.4136 7.16474C10.2798 7.24651 10.1033 7.20377 10.0215 7.06995L9.54571 6.28753C9.46394 6.15372 9.28924 6.10911 9.15357 6.19274L8.17786 6.7856C8.04405 6.86738 7.99944 7.04208 8.08308 7.17775L8.55514 7.95274C8.63691 8.08655 8.59416 8.26311 8.46035 8.34488L7.21888 9.09943C7.08506 9.18121 6.90851 9.13846 6.82673 9.00465L4.87346 5.78945C4.79168 5.65564 4.83443 5.47908 4.96824 5.39731L6.44946 4.49408Z" fill="#D3D0C9"/>
<path d="M-1.2555 4.33434L4.83665 0.634074C4.97789 0.548583 5.0225 0.36645 4.937 0.225205L2.99488 -2.97141C2.90939 -3.11265 2.72725 -3.15726 2.58601 -3.07177L-3.50614 0.630357C-3.64739 0.715847 -3.69199 0.89798 -3.6065 1.03923L-1.66623 4.23398C-1.57888 4.37523 -1.39675 4.41983 -1.2555 4.33434Z" fill="#D3D0C9"/>
<path d="M-6.25684 12.0843V17.0446C-6.18064 17.0651 -6.09701 17.0558 -6.02267 17.013L0.426313 13.0953C0.5657 13.0098 0.610304 12.8277 0.526671 12.6865L-1.41546 9.49172C-1.50095 9.35047 -1.68308 9.30587 -1.82433 9.39136L-6.25684 12.0843Z" fill="#D3D0C9"/>
<path d="M-6.25684 3.44217V4.92896L-2.73313 6.87853L-1.42661 7.60148L5.74161 11.5675L6.68015 12.086L6.87343 12.3964L16.5506 27.887L16.887 28.4259L17.8237 28.6099L21.589 29.3533L24.6091 29.948L38.0497 32.5982V31.2731L25.254 28.7493L22.4086 28.188L19.3885 27.5933L17.6936 27.2588L17.6416 27.177L7.9811 11.7125L7.60568 11.1122L7.01096 10.7832L-0.157255 6.8172L-1.46192 6.09424L-6.25684 3.44217Z" fill="white"/>
<path d="M25.9137 33.8658L30.1566 34.6817C30.3573 34.7207 30.5525 34.5888 30.5915 34.3862L30.835 33.1168C30.874 32.9161 30.742 32.721 30.5395 32.6819L26.2965 31.8661C26.0958 31.827 25.9007 31.959 25.8616 32.1616L25.6182 33.4309C25.5791 33.6316 25.7111 33.8268 25.9137 33.8658Z" fill="#D3D0C9"/>
<path d="M28.0936 27.2941L32.2474 28.0933C32.4481 28.1323 32.6432 28.0004 32.6823 27.7978L32.9889 26.2013C33.0279 26.0006 32.896 25.8055 32.6934 25.7665L28.5397 24.9673C28.339 24.9283 28.1438 25.0602 28.1048 25.2628L27.7981 26.8593C27.761 27.06 27.8929 27.2551 28.0936 27.2941Z" fill="#D3D0C9"/>
<path d="M5.84726 18.6987L9.14423 24.1478C9.25017 24.3243 9.47876 24.3801 9.65532 24.2742L11.4618 23.1814C11.6383 23.0754 11.6941 22.8468 11.5882 22.6703L8.29118 17.2212C8.18525 17.0446 7.95665 16.9889 7.7801 17.0948L5.97364 18.1876C5.79708 18.2935 5.73947 18.5221 5.84726 18.6987Z" fill="#D3D0C9"/>
<path d="M10.02 25.5974L11.4083 27.8927C11.8172 28.5673 12.6944 28.7829 13.369 28.3759C14.0436 27.967 14.2592 27.0898 13.8522 26.4152L12.4639 24.1199C12.3524 23.9378 12.1164 23.8783 11.9324 23.9898L10.1501 25.0678C9.96796 25.1756 9.91035 25.4134 10.02 25.5974Z" fill="#D3D0C9"/>
<path d="M4.04306 15.7157L4.88124 17.1003C4.98718 17.2769 5.21577 17.3326 5.39233 17.2267L7.19879 16.1339C7.37534 16.028 7.4311 15.7994 7.32516 15.6228L6.48698 14.2382C6.38105 14.0617 6.15245 14.0059 5.9759 14.1119L4.16944 15.2047C3.99288 15.3124 3.93527 15.541 4.04306 15.7157Z" fill="#D3D0C9"/>
</g>
<path d="M16 6V6C12.6878 6.00393 10.0037 8.83716 10 12.3333C10 15.1121 13.75 21.8531 15.361 24.6232C15.4975 24.8574 15.7394 25.0001 16 25C16.261 25.0013 16.5036 24.858 16.639 24.6224C18.25 21.8539 22 15.1152 22 12.3333V12.3335C21.9964 8.83736 19.3124 6.00404 16.0002 6L16 6ZM16 15.1042C14.5503 15.1042 13.375 13.8636 13.375 12.3333C13.375 10.803 14.5503 9.5625 16 9.5625C17.4497 9.5625 18.625 10.803 18.625 12.3333C18.625 13.8636 17.4497 15.1042 16 15.1042Z" fill="#5CBA47"/>
</g>
</svg>
