<svg width="93" height="20" viewBox="0 0 93 20" fill="none" xmlns="http://www.w3.org/2000/svg">
<path fill-rule="evenodd" clip-rule="evenodd" d="M7.25833 19.9996C8.77632 19.9996 10.1873 19.5294 11.3533 18.7282C11.5496 19.4007 12.1691 19.8915 12.9022 19.8915C13.7925 19.8915 14.5158 19.1682 14.5158 18.2747V1.61665C14.5158 0.723219 13.7925 0 12.9022 0C12.0126 0 11.2893 0.723219 11.2893 1.61665V6.68049C10.1354 5.90574 8.74875 5.45197 7.25833 5.45197C3.25575 5.45197 0 8.71507 0 12.7258C0 16.7366 3.25575 19.9996 7.25833 19.9996ZM39.7858 20C37.7472 20 35.9008 19.1518 34.5806 17.7891C33.3116 16.4786 32.5283 14.6918 32.5283 12.7256C32.5283 8.71486 35.784 5.45187 39.7866 5.45187C41.5689 5.45187 43.2864 6.12094 44.6025 7.28775C44.609 7.29289 44.7104 7.38438 44.7541 7.42696C45.0526 7.71967 45.2391 8.12834 45.2391 8.58079C45.2391 9.47301 44.5174 10.1975 43.6262 10.1975C43.2159 10.1975 42.8429 10.0428 42.5582 9.78887L42.5112 9.74629C41.7749 9.06424 40.8156 8.68527 39.7866 8.68527C37.5631 8.68527 35.7548 10.4979 35.7548 12.7256C35.7548 13.8035 36.1781 14.7833 36.8657 15.5091C37.6012 16.2831 38.6384 16.7666 39.7858 16.7666C40.8756 16.7666 41.8852 16.3412 42.6377 15.5831C42.9296 15.284 43.3375 15.0971 43.7892 15.0971C44.6804 15.0971 45.402 15.8203 45.402 16.7138C45.402 17.1741 45.2091 17.5892 44.8993 17.8844L44.8944 17.8921C43.5451 19.2265 41.7036 20 39.7858 20ZM26.6452 9.8846L26.6298 9.8692C25.0575 8.29372 22.5007 8.29372 20.9284 9.8692C19.3561 11.4446 19.3561 14.0074 20.9284 15.5829C22.4991 17.1582 25.0575 17.1582 26.6298 15.5828C28.1965 14.0125 28.2021 11.4613 26.6452 9.8846ZM18.6465 17.8688L18.6668 17.8883C21.4985 20.7048 26.0873 20.6982 28.9109 17.8685C31.7409 15.0335 31.7409 10.4194 28.9109 7.58318C26.0808 4.74708 21.4766 4.74707 18.6465 7.58328C15.8181 10.4184 15.8181 15.0338 18.6465 17.8688ZM82.1786 17.7891C83.4987 19.1518 85.3451 20 87.3837 20C89.3015 20 91.1431 19.2265 92.4924 17.8921L92.4972 17.8844C92.807 17.5892 93 17.1741 93 16.7138C93 15.8203 92.2783 15.0971 91.3871 15.0971C90.9355 15.0971 90.5276 15.284 90.2357 15.5831C89.4831 16.3412 88.4736 16.7666 87.3837 16.7666C86.2363 16.7666 85.1992 16.2831 84.4637 15.5091C83.7761 14.7833 83.3528 13.8035 83.3528 12.7256C83.3528 10.4979 85.1611 8.68527 87.3845 8.68527C88.4136 8.68527 89.3729 9.06424 90.1092 9.74629L90.1562 9.78887C90.4408 10.0428 90.8138 10.1975 91.2241 10.1975C92.1153 10.1975 92.837 9.47301 92.837 8.58079C92.837 8.12834 92.6505 7.71967 92.3521 7.42696C92.3083 7.38438 92.2069 7.29289 92.2005 7.28775C90.8844 6.12094 89.1669 5.45187 87.3845 5.45187C83.382 5.45187 80.1262 8.71486 80.1262 12.7256C80.1262 14.6918 80.9095 16.4786 82.1786 17.7891ZM54.8555 19.9996C56.3735 19.9996 57.7844 19.5294 58.9505 18.7282C59.1467 19.4007 59.7663 19.8915 60.4993 19.8915C61.3897 19.8915 62.113 19.1682 62.113 18.2747V1.61665C62.113 0.723219 61.3897 0 60.4993 0C59.6098 0 58.8864 0.723219 58.8864 1.61665V6.68049C57.7325 5.90574 56.3459 5.45197 54.8555 5.45197C50.8529 5.45197 47.5971 8.71507 47.5971 12.7258C47.5971 16.7366 50.8529 19.9996 54.8555 19.9996ZM74.2432 9.8846L74.2278 9.8692C72.6554 8.29372 70.0987 8.29372 68.5264 9.8692C66.954 11.4446 66.954 14.0074 68.5264 15.5829C70.0971 17.1582 72.6554 17.1582 74.2278 15.5828C75.7944 14.0125 75.8001 11.4613 74.2432 9.8846ZM66.2437 17.8688L66.264 17.8883C69.0956 20.7048 73.6845 20.6982 76.508 17.8685C79.338 15.0335 79.338 10.4194 76.508 7.58318C73.678 4.74708 69.0737 4.74707 66.2437 7.58328C63.4153 10.4184 63.4153 15.0338 66.2437 17.8688ZM54.8555 8.68537C52.632 8.68537 50.8237 10.498 50.8237 12.7258C50.8237 14.9536 52.632 16.7662 54.8555 16.7662C57.0781 16.7662 58.8872 14.9536 58.8872 12.7258C58.8872 10.498 57.0781 8.68537 54.8555 8.68537ZM3.22655 12.7258C3.22655 10.498 5.03485 8.68537 7.25833 8.68537C9.48099 8.68537 11.2901 10.498 11.2901 12.7258C11.2901 14.9536 9.48099 16.7662 7.25833 16.7662C5.03485 16.7662 3.22655 14.9536 3.22655 12.7258Z" fill="white"/>
</svg>
